<svg xmlns="http://www.w3.org/2000/svg" xmlns:xlink="http://www.w3.org/1999/xlink" width="40" zoomAndPan="magnify" viewBox="0 0 30 30.000001" height="40" preserveAspectRatio="xMidYMid meet" version="1.0"><defs><clipPath id="a40a2d2dec"><path d="M 0.484375 1.664062 L 29.515625 1.664062 L 29.515625 27.0625 L 0.484375 27.0625 Z M 0.484375 1.664062 " clip-rule="nonzero"/></clipPath></defs><g clip-path="url(#a40a2d2dec)"><path fill="#100f0d" d="M 27.601562 11.136719 C 27.394531 11.972656 26.234375 14.214844 20.777344 19.785156 C 18.363281 22.25 15.996094 24.457031 15 25.371094 C 14.007812 24.457031 11.640625 22.253906 9.226562 19.789062 C 3.765625 14.214844 2.605469 11.972656 2.398438 11.136719 C 1.984375 9.4375 2.261719 7.679688 3.183594 6.183594 C 4.105469 4.691406 5.558594 3.644531 7.277344 3.230469 C 7.667969 3.140625 8.058594 3.089844 8.4375 3.089844 C 11.304688 3.089844 13.453125 5.703125 14.3125 8.289062 C 14.410156 8.582031 14.6875 8.78125 15 8.78125 C 15.3125 8.78125 15.589844 8.582031 15.6875 8.289062 C 16.546875 5.703125 18.695312 3.089844 21.5625 3.089844 C 21.941406 3.089844 22.332031 3.140625 22.722656 3.230469 C 24.441406 3.644531 25.894531 4.691406 26.816406 6.183594 C 27.738281 7.679688 28.015625 9.4375 27.601562 11.136719 Z M 28.054688 5.441406 C 26.929688 3.621094 25.15625 2.34375 23.0625 1.839844 C 22.5625 1.722656 22.058594 1.660156 21.5625 1.660156 C 19.929688 1.660156 18.359375 2.308594 17.023438 3.53125 C 16.234375 4.257812 15.539062 5.183594 15 6.21875 C 14.460938 5.183594 13.765625 4.257812 12.972656 3.53125 C 11.640625 2.308594 10.070312 1.660156 8.4375 1.660156 C 7.941406 1.660156 7.4375 1.722656 6.9375 1.839844 C 4.84375 2.34375 3.070312 3.621094 1.945312 5.441406 C 0.824219 7.257812 0.484375 9.402344 0.992188 11.472656 C 1.425781 13.238281 3.78125 16.285156 8.1875 20.785156 C 11.371094 24.035156 14.480469 26.847656 14.511719 26.875 C 14.648438 27 14.824219 27.0625 15 27.0625 C 15.175781 27.0625 15.351562 27 15.488281 26.875 C 15.519531 26.847656 18.628906 24.035156 21.8125 20.785156 C 26.21875 16.285156 28.574219 13.238281 29.007812 11.472656 C 29.515625 9.402344 29.175781 7.257812 28.054688 5.441406 " fill-opacity="1" fill-rule="nonzero"/></g></svg>