<svg width="63" height="141" viewBox="0 0 63 141" fill="none" xmlns="http://www.w3.org/2000/svg">
<rect x="0.999756" y="0.5" width="61.0004" height="140.001" rx="4.5" stroke="#9747FF" stroke-dasharray="10 5"/>
<path d="M32.7206 17.4055L32.7203 17.4058L31.8739 18.3573L31.5003 18.7773L31.1267 18.3573L30.2802 17.4058L30.2797 17.4051C28.2825 15.1526 25.0974 14.8304 22.9764 16.802C20.4822 19.1245 20.3448 23.3236 22.5846 25.8495L30.8987 35.2148C30.8987 35.2149 30.8988 35.2149 30.8988 35.2149C31.237 35.5955 31.7593 35.5955 32.0975 35.2149C32.0975 35.2149 32.0975 35.2149 32.0976 35.2148L40.4119 25.8493L40.412 25.8492C42.6556 23.3234 42.5183 19.1246 40.0243 16.8021L32.7206 17.4055ZM32.7206 17.4055C34.7223 15.1523 37.9032 14.8305 40.024 16.8019L32.7206 17.4055Z" stroke="#101010"/>
<path d="M32.7206 62.4059L32.7203 62.4061L31.8739 63.3577L31.5003 63.7776L31.1267 63.3577L30.2802 62.4061L30.2797 62.4055C28.2825 60.153 25.0974 59.8307 22.9764 61.8024C20.4822 64.1249 20.3448 68.3239 22.5846 70.8499L30.8987 80.2152C30.8987 80.2152 30.8988 80.2153 30.8988 80.2153C31.237 80.5959 31.7593 80.5959 32.0975 80.2153C32.0975 80.2153 32.0975 80.2152 32.0976 80.2152L40.4119 70.8497L40.412 70.8496C42.6556 68.3237 42.5183 64.125 40.0243 61.8025L32.7206 62.4059ZM32.7206 62.4059C34.7223 60.1527 37.9032 59.8309 40.024 61.8022L32.7206 62.4059Z" stroke="#101010"/>
<path d="M40.3647 106.437C38.01 104.248 34.5081 104.641 32.3468 107.074L31.5003 108.026L30.6538 107.074C28.4968 104.641 24.9905 104.248 22.6358 106.437C19.9374 108.949 19.7956 113.459 22.2104 116.182L30.5249 125.548C31.062 126.152 31.9343 126.152 32.4714 125.548L40.7858 116.182C43.205 113.459 43.0632 108.949 40.3647 106.437Z" fill="url(#paint0_linear_25368_709)"/>
<defs>
<linearGradient id="paint0_linear_25368_709" x1="31.5" y1="99.5406" x2="23.9342" y2="132.993" gradientUnits="userSpaceOnUse">
<stop stop-color="#9356DC"/>
<stop offset="1" stop-color="#FF79DA"/>
</linearGradient>
</defs>
</svg>
